<?xml version="1.0" encoding="iso-8859-1"?>
<!-- Uploaded to: SVG Repo, www.svgrepo.com, Generator: SVG Repo Mixer Tools -->
<svg fill="#000000" height="800px" width="800px" version="1.1" id="Layer_1" xmlns="http://www.w3.org/2000/svg" xmlns:xlink="http://www.w3.org/1999/xlink" 
	 viewBox="0 0 512 512" xml:space="preserve">
<g>
	<g>
		<path d="M512,0.001L387.318,25.312l-72.877,72.877L230.85,77.963L87.415,221.397l83.593,20.226l-17.602,17.602
			c-6.989,6.988-10.838,16.28-10.838,26.164s3.849,19.176,10.838,26.164l47.04,47.041c6.989,6.989,16.281,10.838,26.165,10.838
			s19.176-3.849,26.165-10.838l17.601-17.601l20.226,83.593L434.038,281.15l-20.226-83.593l72.876-72.875L512,0.001z
			 M349.062,106.566l45.768-45.768l17.438,17.438L238.97,251.533l-17.438-17.438l43.377-43.377L349.062,106.566z M147.22,204.588
			l93.063-93.063l48.972,11.849l-93.063,93.063L147.22,204.588z M231.278,337.097c-1.681,1.682-3.645,1.933-4.666,1.933
			s-2.985-0.25-4.667-1.933l-47.041-47.041c-1.681-1.681-1.933-3.646-1.933-4.666c0-1.022,0.251-2.985,1.933-4.666l25.13-25.131
			l28.188,28.188l28.187,28.188L231.278,337.097z M307.413,364.78l-11.849-48.972l93.063-93.062l11.849,48.972L307.413,364.78z
			 M277.906,290.469l-17.438-17.438L433.765,99.732l17.439,17.439L277.906,290.469z M463.436,86.408l-37.842-37.843l47.481-9.64
			L463.436,86.408z"/>
	</g>
</g>
<g>
	<g>
		<path d="M164.717,347.284c-35.842-35.842-94.164-35.843-130.008,0c-52.68,52.679-30.01,144.2-29.019,148.07l2.234,8.722
			l8.723,2.234c1.814,0.464,22.876,5.69,50.175,5.69c30.946,0,69.905-6.72,97.895-34.709
			C200.56,441.448,200.56,383.127,164.717,347.284z M143.219,455.794c-32.117,32.116-88,26.581-109.891,22.879
			c-3.703-21.893-9.237-77.775,22.879-109.892c23.99-23.988,63.022-23.989,87.011,0.001c11.621,11.621,18.021,27.072,18.021,43.507
			C161.24,428.722,154.84,444.173,143.219,455.794z"/>
	</g>
</g>
<g>
	<g>
		<path d="M128.886,383.116c-7.793-7.793-18.154-12.086-29.174-12.086s-21.38,4.291-29.173,12.084
			c-9.197,9.196-20.108,27.604-19.866,63.08l0.102,15.01l16.114,0.092c34.849,0,52.95-10.786,61.997-19.834
			c7.785-7.785,12.072-18.144,12.072-29.174C140.958,401.26,136.671,390.9,128.886,383.116z M107.388,419.963
			c-5.039,5.04-13.828,8.46-25.383,10c1.543-11.526,4.971-20.29,10.033-25.352c2.08-2.08,4.734-3.179,7.675-3.179
			s5.595,1.1,7.676,3.18c2.042,2.043,3.167,4.768,3.167,7.676C110.555,415.195,109.431,417.921,107.388,419.963z"/>
	</g>
</g>
</svg>